# xmcd CD database file
#
# Track frame offsets:
#	150
#	17159
#	37080
#	58727
#	75478
#	91378
#	111860
#	136946
#	153053
#	173242
#
# Disc length: 2483 seconds
#
# Revision: 0
# Processed by: cddbd v1.5.2PL0 Copyright (c) Steve Scherf et al.
# Submitted via: CDex 1.51
#
DISCID=7709b10a
DTITLE=Stefan Schill - Don't say a word
DYEAR=2010
DGENRE=Blues
TTITLE0=Any direction
TTITLE1=Don't say a word
TTITLE2=Just not today
TTITLE3=Take on my beliefs
TTITLE4=U don't mind
TTITLE5=Gone by tomorrow
TTITLE6=Everybody's got to be somewhere
TTITLE7=Game called love
TTITLE8=It's gonna be alright
TTITLE9=Last goodbye
EXTD=YEAR: 2010
EXTT0=
EXTT1=
EXTT2=
EXTT3=
EXTT4=
EXTT5=
EXTT6=
EXTT7=
EXTT8=
EXTT9=
PLAYORDER=
